<mxfile host="Electron" agent="Mozilla/5.0 (Windows NT 10.0; Win64; x64) AppleWebKit/537.36 (KHTML, like Gecko) draw.io/27.0.9 Chrome/134.0.6998.205 Electron/35.4.0 Safari/537.36" version="27.0.9">
  <diagram name="Page-1" id="Rn_51gsRaB02Dr3b2L31">
    <mxGraphModel dx="2068" dy="845" grid="1" gridSize="10" guides="1" tooltips="1" connect="1" arrows="1" fold="1" page="1" pageScale="1" pageWidth="850" pageHeight="1100" math="0" shadow="0">
      <root>
        <mxCell id="0" />
        <mxCell id="1" parent="0" />
        <mxCell id="ctiVgHBL_NUAtJyN5x7s-3" value="" style="edgeStyle=orthogonalEdgeStyle;rounded=0;orthogonalLoop=1;jettySize=auto;html=1;" edge="1" parent="1" source="ctiVgHBL_NUAtJyN5x7s-1" target="ctiVgHBL_NUAtJyN5x7s-2">
          <mxGeometry relative="1" as="geometry" />
        </mxCell>
        <mxCell id="ctiVgHBL_NUAtJyN5x7s-1" value="setRaceFormat (&amp;amp;bookingType)" style="strokeWidth=2;html=1;shape=mxgraph.flowchart.terminator;whiteSpace=wrap;fillColor=#d80073;fontColor=#ffffff;strokeColor=#A50040;" vertex="1" parent="1">
          <mxGeometry x="330" y="40" width="190" height="70" as="geometry" />
        </mxCell>
        <mxCell id="ctiVgHBL_NUAtJyN5x7s-5" value="" style="edgeStyle=orthogonalEdgeStyle;rounded=0;orthogonalLoop=1;jettySize=auto;html=1;" edge="1" parent="1" source="ctiVgHBL_NUAtJyN5x7s-2" target="ctiVgHBL_NUAtJyN5x7s-4">
          <mxGeometry relative="1" as="geometry" />
        </mxCell>
        <mxCell id="ctiVgHBL_NUAtJyN5x7s-2" value="Declare:&lt;div&gt;raceFormatID, raceFormat&lt;/div&gt;" style="whiteSpace=wrap;html=1;strokeWidth=2;fillColor=#fa6800;fontColor=#FFFFFF;strokeColor=#C73500;" vertex="1" parent="1">
          <mxGeometry x="365" y="150" width="120" height="60" as="geometry" />
        </mxCell>
        <mxCell id="ctiVgHBL_NUAtJyN5x7s-7" value="" style="edgeStyle=orthogonalEdgeStyle;rounded=0;orthogonalLoop=1;jettySize=auto;html=1;" edge="1" parent="1" source="ctiVgHBL_NUAtJyN5x7s-4" target="ctiVgHBL_NUAtJyN5x7s-6">
          <mxGeometry relative="1" as="geometry" />
        </mxCell>
        <mxCell id="ctiVgHBL_NUAtJyN5x7s-4" value="displayRaceFormat (bookingType)" style="whiteSpace=wrap;html=1;fillColor=#fa6800;strokeColor=#C73500;fontColor=#FFFFFF;strokeWidth=2;" vertex="1" parent="1">
          <mxGeometry x="320" y="250" width="210" height="60" as="geometry" />
        </mxCell>
        <mxCell id="ctiVgHBL_NUAtJyN5x7s-9" value="" style="edgeStyle=orthogonalEdgeStyle;rounded=0;orthogonalLoop=1;jettySize=auto;html=1;" edge="1" parent="1" source="ctiVgHBL_NUAtJyN5x7s-6" target="ctiVgHBL_NUAtJyN5x7s-8">
          <mxGeometry relative="1" as="geometry" />
        </mxCell>
        <mxCell id="ctiVgHBL_NUAtJyN5x7s-12" value="True" style="edgeLabel;html=1;align=center;verticalAlign=middle;resizable=0;points=[];" vertex="1" connectable="0" parent="ctiVgHBL_NUAtJyN5x7s-9">
          <mxGeometry x="-0.0692" y="-2" relative="1" as="geometry">
            <mxPoint x="-1" y="-2" as="offset" />
          </mxGeometry>
        </mxCell>
        <mxCell id="ctiVgHBL_NUAtJyN5x7s-22" value="" style="edgeStyle=orthogonalEdgeStyle;rounded=0;orthogonalLoop=1;jettySize=auto;html=1;" edge="1" parent="1" source="ctiVgHBL_NUAtJyN5x7s-6" target="ctiVgHBL_NUAtJyN5x7s-21">
          <mxGeometry relative="1" as="geometry" />
        </mxCell>
        <mxCell id="ctiVgHBL_NUAtJyN5x7s-33" value="False" style="edgeLabel;html=1;align=center;verticalAlign=middle;resizable=0;points=[];" vertex="1" connectable="0" parent="ctiVgHBL_NUAtJyN5x7s-22">
          <mxGeometry x="-0.0561" y="3" relative="1" as="geometry">
            <mxPoint y="-2" as="offset" />
          </mxGeometry>
        </mxCell>
        <mxCell id="ctiVgHBL_NUAtJyN5x7s-6" value="bookingType == &quot;Solo&quot;" style="rhombus;whiteSpace=wrap;html=1;fillColor=#1ba1e2;strokeColor=#006EAF;fontColor=#ffffff;strokeWidth=2;" vertex="1" parent="1">
          <mxGeometry x="351" y="350" width="150" height="130" as="geometry" />
        </mxCell>
        <mxCell id="ctiVgHBL_NUAtJyN5x7s-11" value="" style="edgeStyle=orthogonalEdgeStyle;rounded=0;orthogonalLoop=1;jettySize=auto;html=1;" edge="1" parent="1" source="ctiVgHBL_NUAtJyN5x7s-8" target="ctiVgHBL_NUAtJyN5x7s-10">
          <mxGeometry relative="1" as="geometry" />
        </mxCell>
        <mxCell id="ctiVgHBL_NUAtJyN5x7s-8" value="Prompt:&lt;div&gt;&quot;Please choose the race format (1 - 4): &quot;&lt;/div&gt;" style="shape=parallelogram;perimeter=parallelogramPerimeter;whiteSpace=wrap;html=1;fixedSize=1;fillColor=#008a00;strokeColor=#005700;fontColor=#ffffff;strokeWidth=2;" vertex="1" parent="1">
          <mxGeometry x="560" y="385" width="260" height="60" as="geometry" />
        </mxCell>
        <mxCell id="ctiVgHBL_NUAtJyN5x7s-14" value="" style="edgeStyle=orthogonalEdgeStyle;rounded=0;orthogonalLoop=1;jettySize=auto;html=1;" edge="1" parent="1" source="ctiVgHBL_NUAtJyN5x7s-10" target="ctiVgHBL_NUAtJyN5x7s-13">
          <mxGeometry relative="1" as="geometry" />
        </mxCell>
        <mxCell id="ctiVgHBL_NUAtJyN5x7s-10" value="Input:&lt;div&gt;raceFormatID&lt;/div&gt;" style="whiteSpace=wrap;html=1;strokeWidth=2;fillColor=#fa6800;fontColor=#FFFFFF;strokeColor=#C73500;" vertex="1" parent="1">
          <mxGeometry x="630" y="480" width="120" height="60" as="geometry" />
        </mxCell>
        <mxCell id="ctiVgHBL_NUAtJyN5x7s-16" value="" style="edgeStyle=orthogonalEdgeStyle;rounded=0;orthogonalLoop=1;jettySize=auto;html=1;" edge="1" parent="1" source="ctiVgHBL_NUAtJyN5x7s-13" target="ctiVgHBL_NUAtJyN5x7s-15">
          <mxGeometry relative="1" as="geometry" />
        </mxCell>
        <mxCell id="ctiVgHBL_NUAtJyN5x7s-20" value="True" style="edgeLabel;html=1;align=center;verticalAlign=middle;resizable=0;points=[];" vertex="1" connectable="0" parent="ctiVgHBL_NUAtJyN5x7s-16">
          <mxGeometry x="-0.0071" y="-1" relative="1" as="geometry">
            <mxPoint as="offset" />
          </mxGeometry>
        </mxCell>
        <mxCell id="ctiVgHBL_NUAtJyN5x7s-36" style="edgeStyle=orthogonalEdgeStyle;rounded=0;orthogonalLoop=1;jettySize=auto;html=1;exitX=0.5;exitY=1;exitDx=0;exitDy=0;entryX=1;entryY=0.5;entryDx=0;entryDy=0;" edge="1" parent="1" source="ctiVgHBL_NUAtJyN5x7s-13" target="ctiVgHBL_NUAtJyN5x7s-34">
          <mxGeometry relative="1" as="geometry" />
        </mxCell>
        <mxCell id="ctiVgHBL_NUAtJyN5x7s-13" value="cin.fail() || (raceFormatID &amp;lt; 1 || raceFormatID &amp;gt; 4))" style="rhombus;whiteSpace=wrap;html=1;fillColor=#1ba1e2;strokeColor=#006EAF;fontColor=#ffffff;strokeWidth=2;" vertex="1" parent="1">
          <mxGeometry x="590" y="570" width="200" height="170" as="geometry" />
        </mxCell>
        <mxCell id="ctiVgHBL_NUAtJyN5x7s-18" value="" style="edgeStyle=orthogonalEdgeStyle;rounded=0;orthogonalLoop=1;jettySize=auto;html=1;" edge="1" parent="1" source="ctiVgHBL_NUAtJyN5x7s-15" target="ctiVgHBL_NUAtJyN5x7s-17">
          <mxGeometry relative="1" as="geometry" />
        </mxCell>
        <mxCell id="ctiVgHBL_NUAtJyN5x7s-15" value="Prompt:&lt;div&gt;&quot;Please enter valid race format (1 - 4): &quot;&lt;/div&gt;" style="shape=parallelogram;perimeter=parallelogramPerimeter;whiteSpace=wrap;html=1;fixedSize=1;fillColor=#008a00;strokeColor=#005700;fontColor=#ffffff;strokeWidth=2;" vertex="1" parent="1">
          <mxGeometry x="860" y="625" width="240" height="60" as="geometry" />
        </mxCell>
        <mxCell id="ctiVgHBL_NUAtJyN5x7s-19" style="edgeStyle=orthogonalEdgeStyle;rounded=0;orthogonalLoop=1;jettySize=auto;html=1;exitX=0;exitY=0.5;exitDx=0;exitDy=0;entryX=1;entryY=1;entryDx=0;entryDy=0;" edge="1" parent="1" source="ctiVgHBL_NUAtJyN5x7s-17" target="ctiVgHBL_NUAtJyN5x7s-13">
          <mxGeometry relative="1" as="geometry">
            <Array as="points">
              <mxPoint x="740" y="760" />
            </Array>
          </mxGeometry>
        </mxCell>
        <mxCell id="ctiVgHBL_NUAtJyN5x7s-17" value="Input:&lt;div&gt;raceFormatID&lt;/div&gt;" style="whiteSpace=wrap;html=1;strokeWidth=2;fillColor=#fa6800;fontColor=#FFFFFF;strokeColor=#C73500;" vertex="1" parent="1">
          <mxGeometry x="920" y="730" width="120" height="60" as="geometry" />
        </mxCell>
        <mxCell id="ctiVgHBL_NUAtJyN5x7s-24" value="" style="edgeStyle=orthogonalEdgeStyle;rounded=0;orthogonalLoop=1;jettySize=auto;html=1;" edge="1" parent="1" source="ctiVgHBL_NUAtJyN5x7s-21" target="ctiVgHBL_NUAtJyN5x7s-23">
          <mxGeometry relative="1" as="geometry" />
        </mxCell>
        <mxCell id="ctiVgHBL_NUAtJyN5x7s-21" value="Prompt:&lt;div&gt;&quot;Please choose the race format (1 - 5); &quot;&lt;/div&gt;" style="shape=parallelogram;perimeter=parallelogramPerimeter;whiteSpace=wrap;html=1;fixedSize=1;fillColor=#008a00;strokeColor=#005700;fontColor=#ffffff;strokeWidth=2;" vertex="1" parent="1">
          <mxGeometry y="385" width="256" height="60" as="geometry" />
        </mxCell>
        <mxCell id="ctiVgHBL_NUAtJyN5x7s-32" value="" style="edgeStyle=orthogonalEdgeStyle;rounded=0;orthogonalLoop=1;jettySize=auto;html=1;" edge="1" parent="1" source="ctiVgHBL_NUAtJyN5x7s-23" target="ctiVgHBL_NUAtJyN5x7s-27">
          <mxGeometry relative="1" as="geometry" />
        </mxCell>
        <mxCell id="ctiVgHBL_NUAtJyN5x7s-23" value="Input:&lt;div&gt;raceFormatID&lt;/div&gt;" style="whiteSpace=wrap;html=1;strokeWidth=2;fillColor=#fa6800;fontColor=#FFFFFF;strokeColor=#C73500;" vertex="1" parent="1">
          <mxGeometry x="68" y="480" width="120" height="60" as="geometry" />
        </mxCell>
        <mxCell id="ctiVgHBL_NUAtJyN5x7s-25" value="" style="edgeStyle=orthogonalEdgeStyle;rounded=0;orthogonalLoop=1;jettySize=auto;html=1;" edge="1" parent="1" source="ctiVgHBL_NUAtJyN5x7s-27" target="ctiVgHBL_NUAtJyN5x7s-29">
          <mxGeometry relative="1" as="geometry" />
        </mxCell>
        <mxCell id="ctiVgHBL_NUAtJyN5x7s-26" value="True" style="edgeLabel;html=1;align=center;verticalAlign=middle;resizable=0;points=[];" vertex="1" connectable="0" parent="ctiVgHBL_NUAtJyN5x7s-25">
          <mxGeometry x="-0.0071" y="-1" relative="1" as="geometry">
            <mxPoint as="offset" />
          </mxGeometry>
        </mxCell>
        <mxCell id="ctiVgHBL_NUAtJyN5x7s-35" value="" style="edgeStyle=orthogonalEdgeStyle;rounded=0;orthogonalLoop=1;jettySize=auto;html=1;" edge="1" parent="1" source="ctiVgHBL_NUAtJyN5x7s-27" target="ctiVgHBL_NUAtJyN5x7s-34">
          <mxGeometry relative="1" as="geometry">
            <Array as="points">
              <mxPoint x="128" y="930" />
            </Array>
          </mxGeometry>
        </mxCell>
        <mxCell id="ctiVgHBL_NUAtJyN5x7s-27" value="cin.fail() || (raceFormatID &amp;lt; 1 || raceFormatID &amp;gt; 5))" style="rhombus;whiteSpace=wrap;html=1;fillColor=#1ba1e2;strokeColor=#006EAF;fontColor=#ffffff;strokeWidth=2;" vertex="1" parent="1">
          <mxGeometry x="28" y="580" width="200" height="170" as="geometry" />
        </mxCell>
        <mxCell id="ctiVgHBL_NUAtJyN5x7s-28" value="" style="edgeStyle=orthogonalEdgeStyle;rounded=0;orthogonalLoop=1;jettySize=auto;html=1;" edge="1" parent="1" source="ctiVgHBL_NUAtJyN5x7s-29" target="ctiVgHBL_NUAtJyN5x7s-31">
          <mxGeometry relative="1" as="geometry" />
        </mxCell>
        <mxCell id="ctiVgHBL_NUAtJyN5x7s-29" value="Prompt:&lt;div&gt;&quot;Please enter valid race format (1 - 5): &quot;&lt;/div&gt;" style="shape=parallelogram;perimeter=parallelogramPerimeter;whiteSpace=wrap;html=1;fixedSize=1;fillColor=#008a00;strokeColor=#005700;fontColor=#ffffff;strokeWidth=2;" vertex="1" parent="1">
          <mxGeometry x="298" y="635" width="240" height="60" as="geometry" />
        </mxCell>
        <mxCell id="ctiVgHBL_NUAtJyN5x7s-30" style="edgeStyle=orthogonalEdgeStyle;rounded=0;orthogonalLoop=1;jettySize=auto;html=1;exitX=0;exitY=0.5;exitDx=0;exitDy=0;entryX=1;entryY=1;entryDx=0;entryDy=0;" edge="1" parent="1" source="ctiVgHBL_NUAtJyN5x7s-31" target="ctiVgHBL_NUAtJyN5x7s-27">
          <mxGeometry relative="1" as="geometry">
            <Array as="points">
              <mxPoint x="178" y="770" />
            </Array>
          </mxGeometry>
        </mxCell>
        <mxCell id="ctiVgHBL_NUAtJyN5x7s-31" value="Input:&lt;div&gt;raceFormatID&lt;/div&gt;" style="whiteSpace=wrap;html=1;strokeWidth=2;fillColor=#fa6800;fontColor=#FFFFFF;strokeColor=#C73500;" vertex="1" parent="1">
          <mxGeometry x="358" y="740" width="120" height="60" as="geometry" />
        </mxCell>
        <mxCell id="ctiVgHBL_NUAtJyN5x7s-38" value="" style="edgeStyle=orthogonalEdgeStyle;rounded=0;orthogonalLoop=1;jettySize=auto;html=1;" edge="1" parent="1" source="ctiVgHBL_NUAtJyN5x7s-34" target="ctiVgHBL_NUAtJyN5x7s-37">
          <mxGeometry relative="1" as="geometry" />
        </mxCell>
        <mxCell id="ctiVgHBL_NUAtJyN5x7s-34" value="raceFormatID" style="whiteSpace=wrap;html=1;fillColor=#1ba1e2;strokeColor=#006EAF;fontColor=#ffffff;strokeWidth=2;" vertex="1" parent="1">
          <mxGeometry x="365" y="900" width="120" height="60" as="geometry" />
        </mxCell>
        <mxCell id="ctiVgHBL_NUAtJyN5x7s-40" value="" style="edgeStyle=orthogonalEdgeStyle;rounded=0;orthogonalLoop=1;jettySize=auto;html=1;" edge="1" parent="1" source="ctiVgHBL_NUAtJyN5x7s-37" target="ctiVgHBL_NUAtJyN5x7s-39">
          <mxGeometry relative="1" as="geometry" />
        </mxCell>
        <mxCell id="ctiVgHBL_NUAtJyN5x7s-44" value="" style="edgeStyle=orthogonalEdgeStyle;rounded=0;orthogonalLoop=1;jettySize=auto;html=1;" edge="1" parent="1" source="ctiVgHBL_NUAtJyN5x7s-37" target="ctiVgHBL_NUAtJyN5x7s-42">
          <mxGeometry relative="1" as="geometry" />
        </mxCell>
        <mxCell id="ctiVgHBL_NUAtJyN5x7s-37" value="case 1" style="rhombus;whiteSpace=wrap;html=1;fillColor=#1ba1e2;strokeColor=#006EAF;fontColor=#ffffff;strokeWidth=2;" vertex="1" parent="1">
          <mxGeometry x="385" y="1030" width="80" height="80" as="geometry" />
        </mxCell>
        <mxCell id="ctiVgHBL_NUAtJyN5x7s-39" value="return &quot;Circuit Race&quot;" style="strokeWidth=2;html=1;shape=mxgraph.flowchart.terminator;whiteSpace=wrap;fillColor=#d80073;fontColor=#ffffff;strokeColor=#A50040;" vertex="1" parent="1">
          <mxGeometry x="510" y="1042.5" width="140" height="55" as="geometry" />
        </mxCell>
        <mxCell id="ctiVgHBL_NUAtJyN5x7s-41" value="" style="edgeStyle=orthogonalEdgeStyle;rounded=0;orthogonalLoop=1;jettySize=auto;html=1;" edge="1" parent="1" source="ctiVgHBL_NUAtJyN5x7s-42" target="ctiVgHBL_NUAtJyN5x7s-43">
          <mxGeometry relative="1" as="geometry" />
        </mxCell>
        <mxCell id="ctiVgHBL_NUAtJyN5x7s-48" value="" style="edgeStyle=orthogonalEdgeStyle;rounded=0;orthogonalLoop=1;jettySize=auto;html=1;" edge="1" parent="1" source="ctiVgHBL_NUAtJyN5x7s-42" target="ctiVgHBL_NUAtJyN5x7s-46">
          <mxGeometry relative="1" as="geometry" />
        </mxCell>
        <mxCell id="ctiVgHBL_NUAtJyN5x7s-42" value="case 2" style="rhombus;whiteSpace=wrap;html=1;fillColor=#1ba1e2;strokeColor=#006EAF;fontColor=#ffffff;strokeWidth=2;" vertex="1" parent="1">
          <mxGeometry x="385" y="1150" width="80" height="80" as="geometry" />
        </mxCell>
        <mxCell id="ctiVgHBL_NUAtJyN5x7s-43" value="return &quot;Sprint Race&quot;" style="strokeWidth=2;html=1;shape=mxgraph.flowchart.terminator;whiteSpace=wrap;fillColor=#d80073;fontColor=#ffffff;strokeColor=#A50040;" vertex="1" parent="1">
          <mxGeometry x="510" y="1162.5" width="140" height="55" as="geometry" />
        </mxCell>
        <mxCell id="ctiVgHBL_NUAtJyN5x7s-45" value="" style="edgeStyle=orthogonalEdgeStyle;rounded=0;orthogonalLoop=1;jettySize=auto;html=1;" edge="1" parent="1" source="ctiVgHBL_NUAtJyN5x7s-46" target="ctiVgHBL_NUAtJyN5x7s-47">
          <mxGeometry relative="1" as="geometry" />
        </mxCell>
        <mxCell id="ctiVgHBL_NUAtJyN5x7s-55" value="" style="edgeStyle=orthogonalEdgeStyle;rounded=0;orthogonalLoop=1;jettySize=auto;html=1;" edge="1" parent="1" source="ctiVgHBL_NUAtJyN5x7s-46" target="ctiVgHBL_NUAtJyN5x7s-53">
          <mxGeometry relative="1" as="geometry" />
        </mxCell>
        <mxCell id="ctiVgHBL_NUAtJyN5x7s-46" value="case 3" style="rhombus;whiteSpace=wrap;html=1;fillColor=#1ba1e2;strokeColor=#006EAF;fontColor=#ffffff;strokeWidth=2;" vertex="1" parent="1">
          <mxGeometry x="385" y="1273" width="80" height="80" as="geometry" />
        </mxCell>
        <mxCell id="ctiVgHBL_NUAtJyN5x7s-47" value="return &quot;Time Trial&quot;" style="strokeWidth=2;html=1;shape=mxgraph.flowchart.terminator;whiteSpace=wrap;fillColor=#d80073;fontColor=#ffffff;strokeColor=#A50040;" vertex="1" parent="1">
          <mxGeometry x="510" y="1285.5" width="140" height="55" as="geometry" />
        </mxCell>
        <mxCell id="ctiVgHBL_NUAtJyN5x7s-52" value="" style="edgeStyle=orthogonalEdgeStyle;rounded=0;orthogonalLoop=1;jettySize=auto;html=1;" edge="1" parent="1" source="ctiVgHBL_NUAtJyN5x7s-53" target="ctiVgHBL_NUAtJyN5x7s-54">
          <mxGeometry relative="1" as="geometry" />
        </mxCell>
        <mxCell id="ctiVgHBL_NUAtJyN5x7s-59" value="" style="edgeStyle=orthogonalEdgeStyle;rounded=0;orthogonalLoop=1;jettySize=auto;html=1;" edge="1" parent="1" source="ctiVgHBL_NUAtJyN5x7s-53" target="ctiVgHBL_NUAtJyN5x7s-57">
          <mxGeometry relative="1" as="geometry" />
        </mxCell>
        <mxCell id="ctiVgHBL_NUAtJyN5x7s-53" value="case 4" style="rhombus;whiteSpace=wrap;html=1;fillColor=#1ba1e2;strokeColor=#006EAF;fontColor=#ffffff;strokeWidth=2;" vertex="1" parent="1">
          <mxGeometry x="385" y="1390" width="80" height="80" as="geometry" />
        </mxCell>
        <mxCell id="ctiVgHBL_NUAtJyN5x7s-54" value="return &quot;Drag Race&quot;" style="strokeWidth=2;html=1;shape=mxgraph.flowchart.terminator;whiteSpace=wrap;fillColor=#d80073;fontColor=#ffffff;strokeColor=#A50040;" vertex="1" parent="1">
          <mxGeometry x="510" y="1402.5" width="140" height="55" as="geometry" />
        </mxCell>
        <mxCell id="ctiVgHBL_NUAtJyN5x7s-56" value="" style="edgeStyle=orthogonalEdgeStyle;rounded=0;orthogonalLoop=1;jettySize=auto;html=1;" edge="1" parent="1" source="ctiVgHBL_NUAtJyN5x7s-57" target="ctiVgHBL_NUAtJyN5x7s-58">
          <mxGeometry relative="1" as="geometry" />
        </mxCell>
        <mxCell id="ctiVgHBL_NUAtJyN5x7s-64" value="" style="edgeStyle=orthogonalEdgeStyle;rounded=0;orthogonalLoop=1;jettySize=auto;html=1;" edge="1" parent="1" source="ctiVgHBL_NUAtJyN5x7s-57" target="ctiVgHBL_NUAtJyN5x7s-62">
          <mxGeometry relative="1" as="geometry" />
        </mxCell>
        <mxCell id="ctiVgHBL_NUAtJyN5x7s-57" value="case 5" style="rhombus;whiteSpace=wrap;html=1;fillColor=#1ba1e2;strokeColor=#006EAF;fontColor=#ffffff;strokeWidth=2;" vertex="1" parent="1">
          <mxGeometry x="385" y="1500" width="80" height="80" as="geometry" />
        </mxCell>
        <mxCell id="ctiVgHBL_NUAtJyN5x7s-58" value="return &quot;Elimination Race&quot;" style="strokeWidth=2;html=1;shape=mxgraph.flowchart.terminator;whiteSpace=wrap;fillColor=#d80073;fontColor=#ffffff;strokeColor=#A50040;" vertex="1" parent="1">
          <mxGeometry x="510" y="1512.5" width="150" height="55" as="geometry" />
        </mxCell>
        <mxCell id="ctiVgHBL_NUAtJyN5x7s-60" value="" style="edgeStyle=orthogonalEdgeStyle;rounded=0;orthogonalLoop=1;jettySize=auto;html=1;" edge="1" parent="1" source="ctiVgHBL_NUAtJyN5x7s-62" target="ctiVgHBL_NUAtJyN5x7s-63">
          <mxGeometry relative="1" as="geometry" />
        </mxCell>
        <mxCell id="ctiVgHBL_NUAtJyN5x7s-62" value="default" style="rhombus;whiteSpace=wrap;html=1;fillColor=#1ba1e2;strokeColor=#006EAF;fontColor=#ffffff;strokeWidth=2;" vertex="1" parent="1">
          <mxGeometry x="385" y="1610" width="80" height="80" as="geometry" />
        </mxCell>
        <mxCell id="ctiVgHBL_NUAtJyN5x7s-63" value="return &quot;Invalid Race Format&quot;" style="strokeWidth=2;html=1;shape=mxgraph.flowchart.terminator;whiteSpace=wrap;fillColor=#d80073;fontColor=#ffffff;strokeColor=#A50040;" vertex="1" parent="1">
          <mxGeometry x="510" y="1622.5" width="140" height="55" as="geometry" />
        </mxCell>
      </root>
    </mxGraphModel>
  </diagram>
</mxfile>
